<?xml version="1.0" encoding="utf-8"?>
<!-- Generator: Adobe Illustrator 23.0.0, SVG Export Plug-In . SVG Version: 6.00 Build 0)  -->
<svg version="1.1" id="图层_1" xmlns="http://www.w3.org/2000/svg" xmlns:xlink="http://www.w3.org/1999/xlink" x="0px" y="0px"
	 viewBox="0 0 45 44" style="enable-background:new 0 0 45 44;" xml:space="preserve">
<style type="text/css">
	.st0{fill:#424242;}
</style>
<title>profile</title>
<g>
	<g id="图层_1-2">
		<path id="Icon_awesome-user-alt" class="st0" d="M22.5,24.7c6.9,0.1,12.6-5.5,12.7-12.4C35.1,5.5,29.4-0.1,22.5,0
			C15.6-0.1,9.9,5.5,9.8,12.4C9.9,19.3,15.6,24.8,22.5,24.7z M33.8,27.5H29c-4.1,1.8-8.7,1.8-12.8,0h-4.8C5.1,27.4,0.1,32.4,0,38.5
			v1.4C0,42.2,1.9,44,4.2,44l0,0h36.6c2.3,0,4.2-1.8,4.2-4.1l0,0v-1.4C44.9,32.4,39.9,27.4,33.8,27.5z"/>
	</g>
</g>
</svg>
