<?xml version="1.0" encoding="utf-8"?>
<!-- Generator: Adobe Illustrator 23.0.0, SVG Export Plug-In . SVG Version: 6.00 Build 0)  -->
<svg version="1.1" id="图层_1" xmlns="http://www.w3.org/2000/svg" xmlns:xlink="http://www.w3.org/1999/xlink" x="0px" y="0px"
	 viewBox="0 0 47.6 47.6" style="enable-background:new 0 0 47.6 47.6;" xml:space="preserve">
<style type="text/css">
	.st0{fill:#4C4C4C;}
</style>
<title>Icon awesome-search (3)</title>
<g>
	<g id="图层_1-2">
		<path id="Icon_awesome-search" class="st0" d="M47,41.2l-9.3-9.3c-0.4-0.4-1-0.7-1.6-0.6h-1.5c6.6-8.4,5.1-20.6-3.3-27.1
			S10.7-1,4.1,7.5S-1,28,7.5,34.6c7,5.5,16.8,5.5,23.8,0v1.5c0,0.6,0.2,1.2,0.6,1.6l9.3,9.3c0.9,0.9,2.3,0.9,3.2,0l0,0l2.7-2.7
			C47.9,43.5,47.9,42.1,47,41.2C47,41.2,47,41.2,47,41.2z M19.3,31.2c-6.6,0-11.9-5.3-11.9-11.9S12.8,7.4,19.3,7.4
			s11.9,5.3,11.9,11.9l0,0l0,0C31.3,25.9,25.9,31.2,19.3,31.2C19.4,31.2,19.4,31.2,19.3,31.2L19.3,31.2z"/>
	</g>
</g>
</svg>
